o 
v -136.39999389648438 10 50
v -155.10000610351562 46.20000076293945 0
v -136.39999389648438 10 -50
v 136.39999389648438 10 50
v 153.8000030517578 20 0
v 145.1999969482422 20.200000762939453 65
v 136.39999389648438 10 50
v 145.1999969482422 20.200000762939453 65
v -136.39999389648438 10 50
v 136.39999389648438 10 50
v -136.39999389648438 10 50
v -136.39999389648438 10 -50
v -150 46.20000076293945 -38.20000076293945
v -136.39999389648438 10 -50
v -155.10000610351562 46.20000076293945 0
v -30 36.79999923706055 59.70000076293945
v -136.39999389648438 10 50
v 145.1999969482422 20.200000762939453 65
v -150 46.20000076293945 38.20000076293945
v -136.39999389648438 10 50
v -30 36.79999923706055 59.70000076293945
v -150 46.20000076293945 38.20000076293945
v -147.89999389648438 50 33.599998474121094
v -155.10000610351562 46.20000076293945 0
v -150 46.20000076293945 38.20000076293945
v -155.10000610351562 46.20000076293945 0
v -136.39999389648438 10 50
v -146.6999969482422 56.099998474121094 0
v -155.10000610351562 46.20000076293945 0
v -147.89999389648438 50 33.599998474121094
v -30 36.79999923706055 -59.70000076293945
v -150 46.20000076293945 -38.20000076293945
v -30 64.0999984741211 -40
v -30 36.79999923706055 -59.70000076293945
v 145.1999969482422 20.200000762939453 -65
v -136.39999389648438 10 -50
v -30 36.79999923706055 -59.70000076293945
v -136.39999389648438 10 -50
v -150 46.20000076293945 -38.20000076293945
v 136.39999389648438 10 -50
v 136.39999389648438 10 50
v -136.39999389648438 10 -50
v 136.39999389648438 10 -50
v -136.39999389648438 10 -50
v 145.1999969482422 20.200000762939453 -65
v 136.39999389648438 10 -50
v 145.1999969482422 20.200000762939453 -65
v 153.8000030517578 20 0
v 136.39999389648438 10 -50
v 153.8000030517578 20 0
v 136.39999389648438 10 50
v -30 64.0999984741211 40
v -30 64.0999984741211 -40
v -146.6999969482422 56.099998474121094 0
v -30 64.0999984741211 40
v -146.6999969482422 56.099998474121094 0
v -147.89999389648438 50 33.599998474121094
v -30 64.0999984741211 40
v -147.89999389648438 50 33.599998474121094
v -150 46.20000076293945 38.20000076293945
v -30 64.0999984741211 40
v -150 46.20000076293945 38.20000076293945
v -30 36.79999923706055 59.70000076293945
v -30 64.0999984741211 40
v 150.60000610351562 31.899999618530273 0
v -30 64.0999984741211 -40
v -147.89999389648438 50 -33.599998474121094
v -150 46.20000076293945 -38.20000076293945
v -155.10000610351562 46.20000076293945 0
v -147.89999389648438 50 -33.599998474121094
v -155.10000610351562 46.20000076293945 0
v -146.6999969482422 56.099998474121094 0
v -147.89999389648438 50 -33.599998474121094
v -146.6999969482422 56.099998474121094 0
v -30 64.0999984741211 -40
v -147.89999389648438 50 -33.599998474121094
v -30 64.0999984741211 -40
v -150 46.20000076293945 -38.20000076293945
v 142.3000030517578 32.400001525878906 -62.5
v 145.1999969482422 20.200000762939453 -65
v -30 36.79999923706055 -59.70000076293945
v 142.3000030517578 32.400001525878906 -62.5
v -30 36.79999923706055 -59.70000076293945
v -30 64.0999984741211 -40
v 142.3000030517578 32.400001525878906 -62.5
v -30 64.0999984741211 -40
v 150.60000610351562 31.899999618530273 0
v 142.3000030517578 32.400001525878906 -62.5
v 150.60000610351562 31.899999618530273 0
v 153.8000030517578 20 0
v 142.3000030517578 32.400001525878906 -62.5
v 153.8000030517578 20 0
v 145.1999969482422 20.200000762939453 -65
v 142.3000030517578 32.400001525878906 62.5
v 145.1999969482422 20.200000762939453 65
v 153.8000030517578 20 0
v 142.3000030517578 32.400001525878906 62.5
v 153.8000030517578 20 0
v 150.60000610351562 31.899999618530273 0
v 142.3000030517578 32.400001525878906 62.5
v 150.60000610351562 31.899999618530273 0
v -30 64.0999984741211 40
v 142.3000030517578 32.400001525878906 62.5
v -30 64.0999984741211 40
v -30 36.79999923706055 59.70000076293945
v 142.3000030517578 32.400001525878906 62.5
v -30 36.79999923706055 59.70000076293945
v 145.1999969482422 20.200000762939453 65
vn -0.8884592652320862 -0.45895546674728394 0
vn -0.8884592652320862 -0.45895546674728394 0
vn -0.8884592652320862 -0.45895546674728394 0
vn 0.6825529336929321 -0.7249539494514465 0.09253763407468796
vn 0.6825529336929321 -0.7249539494514465 0.09253763407468796
vn 0.6825529336929321 -0.7249539494514465 0.09253763407468796
vn 0 -0.8269265294075012 0.5623100399971008
vn 0 -0.8269265294075012 0.5623100399971008
vn 0 -0.8269265294075012 0.5623100399971008
vn 0 -1 0
vn 0 -1 0
vn 0 -1 0
vn -0.9414867758750916 -0.31273505091667175 -0.12569588422775269
vn -0.9414867758750916 -0.31273505091667175 -0.12569588422775269
vn -0.9414867758750916 -0.31273505091667175 -0.12569588422775269
vn -0.046144627034664154 -0.17289693653583527 0.9838584065437317
vn -0.046144627034664154 -0.17289693653583527 0.9838584065437317
vn -0.046144627034664154 -0.17289693653583527 0.9838584065437317
vn -0.15119431912899017 0.2545505464076996 0.9551671743392944
vn -0.15119431912899017 0.2545505464076996 0.9551671743392944
vn -0.15119431912899017 0.2545505464076996 0.9551671743392944
vn -0.8089883923530579 0.5778169631958008 0.1080062985420227
vn -0.8089883923530579 0.5778169631958008 0.1080062985420227
vn -0.8089883923530579 0.5778169631958008 0.1080062985420227
vn -0.9414867758750916 -0.31273505091667175 0.12569588422775269
vn -0.9414867758750916 -0.31273505091667175 0.12569588422775269
vn -0.9414867758750916 -0.31273505091667175 0.12569588422775269
vn -0.7594243288040161 0.6443600654602051 0.089859738945961
vn -0.7594243288040161 0.6443600654602051 0.089859738945961
vn -0.7594243288040161 0.6443600654602051 0.089859738945961
vn -0.09896265715360641 0.5822926759719849 -0.8069334626197815
vn -0.09896265715360641 0.5822926759719849 -0.8069334626197815
vn -0.09896265715360641 0.5822926759719849 -0.8069334626197815
vn -0.046144627034664154 -0.17289693653583527 -0.9838584065437317
vn -0.046144627034664154 -0.17289693653583527 -0.9838584065437317
vn -0.046144627034664154 -0.17289693653583527 -0.9838584065437317
vn -0.15119431912899017 0.2545505464076996 -0.9551671743392944
vn -0.15119431912899017 0.2545505464076996 -0.9551671743392944
vn -0.15119431912899017 0.2545505464076996 -0.9551671743392944
vn 0 -1 0
vn 0 -1 0
vn 0 -1 0
vn 0 -0.8269265294075012 -0.5623100399971008
vn 0 -0.8269265294075012 -0.5623100399971008
vn 0 -0.8269265294075012 -0.5623100399971008
vn 0.6825529336929321 -0.7249539494514465 -0.09253763407468796
vn 0.6825529336929321 -0.7249539494514465 -0.09253763407468796
vn 0.6825529336929321 -0.7249539494514465 -0.09253763407468796
vn 0.49828386306762695 -0.8670139312744141 0
vn 0.49828386306762695 -0.8670139312744141 0
vn 0.49828386306762695 -0.8670139312744141 0
vn -0.0683913305401802 0.9976585507392883 0
vn -0.0683913305401802 0.9976585507392883 0
vn -0.0683913305401802 0.9976585507392883 0
vn -0.12620416283607483 0.9768320322036743 0.17283423244953156
vn -0.12620416283607483 0.9768320322036743 0.17283423244953156
vn -0.12620416283607483 0.9768320322036743 0.17283423244953156
vn -0.1271522343158722 0.7924273610115051 0.5965661406517029
vn -0.1271522343158722 0.7924273610115051 0.5965661406517029
vn -0.1271522343158722 0.7924273610115051 0.5965661406517029
vn -0.09896265715360641 0.5822926759719849 0.8069334626197815
vn -0.09896265715360641 0.5822926759719849 0.8069334626197815
vn -0.09896265715360641 0.5822926759719849 0.8069334626197815
vn 0.17552649974822998 0.9844747185707092 0
vn 0.17552649974822998 0.9844747185707092 0
vn 0.17552649974822998 0.9844747185707092 0
vn -0.8089883923530579 0.5778169631958008 -0.1080062985420227
vn -0.8089883923530579 0.5778169631958008 -0.1080062985420227
vn -0.8089883923530579 0.5778169631958008 -0.1080062985420227
vn -0.7594243288040161 0.6443600654602051 -0.089859738945961
vn -0.7594243288040161 0.6443600654602051 -0.089859738945961
vn -0.7594243288040161 0.6443600654602051 -0.089859738945961
vn -0.12620416283607483 0.9768320322036743 -0.17283423244953156
vn -0.12620416283607483 0.9768320322036743 -0.17283423244953156
vn -0.12620416283607483 0.9768320322036743 -0.17283423244953156
vn -0.1271522343158722 0.7924273610115051 -0.5965661406517029
vn -0.1271522343158722 0.7924273610115051 -0.5965661406517029
vn -0.1271522343158722 0.7924273610115051 -0.5965661406517029
vn -0.010864350944757462 0.19825562834739685 -0.9800901412963867
vn -0.010864350944757462 0.19825562834739685 -0.9800901412963867
vn -0.010864350944757462 0.19825562834739685 -0.9800901412963867
vn 0.0017653313698247075 0.5851642489433289 -0.8109129071235657
vn 0.0017653313698247075 0.5851642489433289 -0.8109129071235657
vn 0.0017653313698247075 0.5851642489433289 -0.8109129071235657
vn 0.17891421914100647 0.9837363362312317 -0.015889916568994522
vn 0.17891421914100647 0.9837363362312317 -0.015889916568994522
vn 0.17891421914100647 0.9837363362312317 -0.015889916568994522
vn 0.9580986499786377 0.25763997435569763 -0.1251743733882904
vn 0.9580986499786377 0.25763997435569763 -0.1251743733882904
vn 0.9580986499786377 0.25763997435569763 -0.1251743733882904
vn 0.9590014219284058 0.25380000472068787 -0.12610234320163727
vn 0.9590014219284058 0.25380000472068787 -0.12610234320163727
vn 0.9590014219284058 0.25380000472068787 -0.12610234320163727
vn 0.9590014219284058 0.25380000472068787 0.12610234320163727
vn 0.9590014219284058 0.25380000472068787 0.12610234320163727
vn 0.9590014219284058 0.25380000472068787 0.12610234320163727
vn 0.9580986499786377 0.25763997435569763 0.1251743733882904
vn 0.9580986499786377 0.25763997435569763 0.1251743733882904
vn 0.9580986499786377 0.25763997435569763 0.1251743733882904
vn 0.17891421914100647 0.9837363362312317 0.015889916568994522
vn 0.17891421914100647 0.9837363362312317 0.015889916568994522
vn 0.17891421914100647 0.9837363362312317 0.015889916568994522
vn 0.0017653313698247075 0.5851642489433289 0.8109129071235657
vn 0.0017653313698247075 0.5851642489433289 0.8109129071235657
vn 0.0017653313698247075 0.5851642489433289 0.8109129071235657
vn -0.010864350944757462 0.19825562834739685 0.9800901412963867
vn -0.010864350944757462 0.19825562834739685 0.9800901412963867
vn -0.010864350944757462 0.19825562834739685 0.9800901412963867
f 1//1 2//2 3//3
f 4//4 5//5 6//6
f 7//7 8//8 9//9
f 10//10 11//11 12//12
f 13//13 14//14 15//15
f 16//16 17//17 18//18
f 19//19 20//20 21//21
f 22//22 23//23 24//24
f 25//25 26//26 27//27
f 28//28 29//29 30//30
f 31//31 32//32 33//33
f 34//34 35//35 36//36
f 37//37 38//38 39//39
f 40//40 41//41 42//42
f 43//43 44//44 45//45
f 46//46 47//47 48//48
f 49//49 50//50 51//51
f 52//52 53//53 54//54
f 55//55 56//56 57//57
f 58//58 59//59 60//60
f 61//61 62//62 63//63
f 64//64 65//65 66//66
f 67//67 68//68 69//69
f 70//70 71//71 72//72
f 73//73 74//74 75//75
f 76//76 77//77 78//78
f 79//79 80//80 81//81
f 82//82 83//83 84//84
f 85//85 86//86 87//87
f 88//88 89//89 90//90
f 91//91 92//92 93//93
f 94//94 95//95 96//96
f 97//97 98//98 99//99
f 100//100 101//101 102//102
f 103//103 104//104 105//105
f 106//106 107//107 108//108
